<svg width="96" height="96" xmlns="http://www.w3.org/2000/svg" xmlns:xlink="http://www.w3.org/1999/xlink" xml:space="preserve" overflow="hidden"><g transform="translate(-592 -312)"><path d="M608.842 338.007 611.358 372.34 611.58 375.366 614.274 373.966 635.174 363.124 635.174 375.484 638.1 373.969 659 363.127 659 380.018 677 380.018 677 394.018 603 394.018 603 372.267 605.506 338.007ZM603.647 336.007 601 372.194 601 396.023 679 396.023 679 378.023 661 378.023 661 359.836 637.177 372.194 637.177 359.836 613.353 372.194 610.7 336.007Z" fill="#FFFFFF"/><path d="M632.181 340.992C630.44 340.997 628.758 340.363 627.455 339.209 626.598 338.41 625.986 337.383 625.691 336.249 623.716 336.235 621.818 335.481 620.372 334.135L617.487 331.4C616.406 330.502 615.012 330.07 613.612 330.2L613.124 330.238C611.464 330.299 610.158 331.677 610.185 333.338L610.185 334.006 608.185 334.006 608.185 333.358C608.123 330.637 610.25 328.366 612.969 328.249L613.527 328.208C615.464 328.045 617.384 328.67 618.854 329.942L621.74 332.677C622.999 333.844 624.703 334.404 626.408 334.213L627.416 334.1 627.516 335.109C627.611 336.11 628.068 337.043 628.8 337.732 630.804 339.478 633.808 339.41 635.73 337.574 636.018 337.301 636.272 336.995 636.486 336.661L636.886 336.031 637.603 336.24C639.858 336.892 642.289 336.307 644 334.7 646.291 332.69 646.519 329.204 644.509 326.913 644.509 326.913 644.508 326.912 644.508 326.912 644.412 326.803 644.312 326.698 644.208 326.597 641.688 324.403 637.912 324.49 635.495 326.797 634.382 327.823 632.671 327.832 631.546 326.819 629.5 324.936 626.353 324.932 624.302 326.81L623.902 327.202C622.789 328.238 621.068 328.247 619.944 327.223 618.573 325.977 616.785 325.286 614.932 325.288L614.216 325.303C609.886 325.182 606.271 328.58 606.124 332.909L606.124 334.003 604.124 334.003 604.124 332.882C604.332 327.491 608.794 323.246 614.188 323.306L614.916 323.291C617.279 323.289 619.558 324.17 621.305 325.761 621.649 326.077 622.178 326.077 622.522 325.761L622.922 325.369C625.736 322.774 630.069 322.765 632.894 325.349 633.248 325.663 633.782 325.659 634.132 325.34 637.316 322.324 642.275 322.235 645.565 325.135 645.739 325.301 645.876 325.445 646.008 325.594 648.745 328.702 648.45 333.438 645.349 336.183 643.311 338.084 640.481 338.885 637.749 338.336 637.554 338.579 637.342 338.809 637.116 339.024 635.788 340.294 634.019 340.999 632.181 340.992Z" fill="#FFFFFF"/><path d="M616.647 383.9 616.647 387.843 610.059 387.843 610.059 383.9ZM608.059 381.9 608.059 389.843 618.647 389.843 618.647 381.9Z" fill="#FFFFFF"/><path d="M634.3 383.9 634.3 387.843 627.707 387.843 627.707 383.9ZM625.712 381.9 625.712 389.843 636.3 389.843 636.3 381.9Z" fill="#FFFFFF"/><path d="M651.943 383.9 651.943 387.843 645.354 387.843 645.354 383.9ZM643.354 381.9 643.354 389.843 653.943 389.843 653.943 381.9Z" fill="#FFFFFF"/></g></svg>