<svg width="96" height="96" xmlns="http://www.w3.org/2000/svg" xmlns:xlink="http://www.w3.org/1999/xlink" xml:space="preserve" overflow="hidden"><g transform="translate(-592 -312)"><path d="M666.5 350.411C667.209 349.178 667.779 347.87 668.2 346.511L672.6 344.311 672.6 339.311 668.2 337.111C667.832 335.749 667.295 334.439 666.6 333.211L668.2 328.511 664.6 324.911 659.9 326.511C658.673 325.812 657.362 325.271 656 324.9L653.8 320.5 648.8 320.5 646.6 324.9C645.238 325.267 643.928 325.805 642.7 326.5L638 324.9 634.4 328.5 636 333.2C635.305 334.428 634.768 335.738 634.4 337.1L630 339.3 630 344.3 634.4 346.5C634.768 347.862 635.305 349.172 636 350.4L634.4 355.1 637.9 358.6 642.6 357C643.828 357.695 645.138 358.232 646.5 358.6L648.7 363 653.7 363 655.9 358.6C657.262 358.232 658.572 357.695 659.8 357L664.5 358.6 668.1 355.1ZM664.606 351.055 665.8 354.56 663.985 356.325 660.445 355.119 659.581 354.825 658.792 355.285C657.709 355.897 656.553 356.369 655.351 356.69L654.505 356.932 654.111 357.719 652.464 361.019 649.939 361.019 648.292 357.719 647.898 356.932 647.052 356.69C645.85 356.369 644.693 355.897 643.61 355.285L642.822 354.825 641.958 355.119 638.436 356.319 636.696 354.579 637.896 351.056 638.19 350.192 637.73 349.404C637.119 348.32 636.649 347.163 636.33 345.961L636.088 345.115 635.302 344.722 632 343.073 632 340.544 635.3 338.9 636.086 338.506 636.328 337.66C636.647 336.458 637.117 335.302 637.728 334.218L638.188 333.429 637.894 332.566 636.694 329.042 638.534 327.202 642.056 328.402 642.92 328.702 643.708 328.241C644.792 327.631 645.948 327.16 647.15 326.841L648 326.585 648.394 325.798 650.041 322.498 652.569 322.498 654.216 325.798 654.61 326.585 655.455 326.827C656.657 327.146 657.813 327.616 658.897 328.227L659.686 328.688 660.55 328.388 664.071 327.188 665.911 329.028 664.711 332.552 664.417 333.415 664.877 334.204C665.489 335.287 665.961 336.444 666.282 337.646L666.523 338.492 667.31 338.886 670.61 340.534 670.61 343.063 667.31 344.711 666.545 345.094 666.293 345.912C665.917 347.127 665.408 348.297 664.776 349.4L664.316 350.188Z" fill="#FFFFFF"/><path d="M607.4 375.618 607.4 380.618 611.8 382.818C612.168 384.18 612.705 385.49 613.4 386.718L611.9 391.418 615.4 394.918 620.1 393.418C621.328 394.113 622.638 394.65 624 395.018L626.2 399.418 631.2 399.418 633.4 395.018C634.762 394.65 636.072 394.113 637.3 393.418L642 395.018 645.5 391.418 644 386.818C644.695 385.59 645.232 384.28 645.6 382.918L650 380.718 650 375.718 645.6 373.518C645.232 372.156 644.695 370.846 644 369.618L645.6 364.918 642 361.318 637.3 362.918C636.064 362.24 634.756 361.704 633.4 361.318L631.2 356.918 626.2 356.918 624 361.318C622.638 361.686 621.328 362.223 620.1 362.918L615.4 361.318 611.9 364.818 613.4 369.518C612.722 370.754 612.186 372.062 611.8 373.418ZM613.46 374.818 613.712 374C614.056 372.792 614.531 371.624 615.128 370.519L615.576 369.75 615.305 368.903 614.176 365.362 615.934 363.603 619.456 364.803 620.32 365.098 621.108 364.638C622.191 364.026 623.348 363.553 624.55 363.233L625.4 363 625.794 362.213 627.441 358.913 629.969 358.913 631.616 362.213 631.999 362.979 632.817 363.23C634.025 363.575 635.192 364.05 636.297 364.647L637.086 365.107 637.95 364.812 641.471 363.612 643.311 365.453 642.111 368.976 641.817 369.839 642.277 370.628C642.889 371.712 643.361 372.868 643.682 374.071L643.923 374.916 644.71 375.31 648 376.954 648 379.483 644.7 381.131 643.913 381.525 643.672 382.37C643.351 383.572 642.879 384.729 642.267 385.813L641.815 386.588 642.093 387.441 643.219 390.894 641.45 392.722 637.95 391.529 637.086 391.235 636.297 391.695C635.213 392.308 634.055 392.78 632.852 393.1L632.006 393.342 631.613 394.129 629.966 397.429 627.438 397.429 625.791 394.129 625.397 393.342 624.551 393.1C623.349 392.78 622.192 392.307 621.109 391.695L620.341 391.247 619.493 391.517 615.954 392.647 614.177 390.87 615.306 387.329 615.577 386.482 615.129 385.713C614.517 384.63 614.045 383.473 613.724 382.271L613.482 381.425 612.696 381.031 609.396 379.383 609.396 376.854 612.696 375.206Z" fill="#FFFFFF"/><path d="M651.3 334.306C647.158 334.306 643.8 337.664 643.8 341.806 643.8 345.948 647.158 349.306 651.3 349.306 655.442 349.306 658.8 345.948 658.8 341.806 658.769 337.677 655.429 334.337 651.3 334.306ZM651.3 347.306C648.264 347.302 645.804 344.842 645.8 341.806 645.84 338.785 648.279 336.346 651.3 336.306 654.336 336.31 656.796 338.77 656.8 341.806 656.762 344.828 654.322 347.27 651.3 347.31Z" fill="#FFFFFF"/><path d="M628.7 385.721C632.842 385.721 636.2 382.363 636.2 378.221 636.2 374.079 632.842 370.721 628.7 370.721 624.558 370.721 621.2 374.079 621.2 378.221 621.195 382.358 624.545 385.716 628.682 385.721 628.688 385.721 628.694 385.721 628.7 385.721ZM628.7 372.716C631.738 372.716 634.2 375.178 634.2 378.216 634.2 381.254 631.738 383.716 628.7 383.716 625.662 383.716 623.2 381.254 623.2 378.216 623.204 375.18 625.664 372.72 628.7 372.716Z" fill="#FFFFFF"/></g></svg>