<svg width="96" height="96" xmlns="http://www.w3.org/2000/svg" xmlns:xlink="http://www.w3.org/1999/xlink" xml:space="preserve" overflow="hidden"><g transform="translate(-592 -312)"><path d="M599 336 601 336 601 384 599 384Z" fill="#FFFFFF"/><path d="M603.5 336 606.5 336 606.5 384 603.5 384Z" fill="#FFFFFF"/><path d="M611 336 613 336 613 384 611 384Z" fill="#FFFFFF"/><path d="M619 336 621 336 621 384 619 384Z" fill="#FFFFFF"/><path d="M626 336 628 336 628 384 626 384Z" fill="#FFFFFF"/><path d="M631.5 336 634.5 336 634.5 384 631.5 384Z" fill="#FFFFFF"/><path d="M644.5 336 647.5 336 647.5 384 644.5 384Z" fill="#FFFFFF"/><path d="M652 336 654 336 654 384 652 384Z" fill="#FFFFFF"/><path d="M640 336 642 336 642 384 640 384Z" fill="#FFFFFF"/><path d="M660 336 662 336 662 384 660 384Z" fill="#FFFFFF"/><path d="M666.5 336 669.5 336 669.5 384 666.5 384Z" fill="#FFFFFF"/><path d="M679 336 681 336 681 384 679 384Z" fill="#FFFFFF"/><path d="M672 336 674 336 674 384 672 384Z" fill="#FFFFFF"/></g></svg>